<?xml version="1.0" encoding="utf-8"?>
<!-- Generator: Adobe Illustrator 22.1.0, SVG Export Plug-In . SVG Version: 6.00 Build 0)  -->
<svg version="1.1" id="Слой_1" xmlns="http://www.w3.org/2000/svg" xmlns:xlink="http://www.w3.org/1999/xlink" x="0px" y="0px"
	 viewBox="0 0 900.4 284.2" style="enable-background:new 0 0 900.4 284.2;" xml:space="preserve">
<style type="text/css">
	.st0{stroke:#000000;stroke-width:0.5;stroke-miterlimit:10;}
	.st1{fill:#1AAFD0;}
	.st2{fill:#FFFFFF;}
	.st3{opacity:0.7;fill:#FFFFFF;enable-background:new    ;}
	.st4{fill:#999999;}
</style>
<g>
	<path class="st0" d="M332.9,86.3c-2.7,0-3.7-1.1-3.7-3.7c0-2.7,1.1-3.7,3.7-3.7h43c2.7,0,3.7,1.1,3.7,3.7c0,2.7-1.1,3.7-3.7,3.7
		H332.9z M333.9,141.5c-2.7,0-3.7-1.1-3.7-3.7s1.1-3.7,3.7-3.7h43c2.7,0,3.7,1.1,3.7,3.7s-1.1,3.7-3.7,3.7H333.9z M337.7,138.4
		l-6.9-3.7l43-55.3l6.4,5.3L337.7,138.4z"/>
	<path class="st0" d="M422.7,142.1c-6.4,0-11.7-1.1-16.5-4.3c-4.8-2.7-9-6.4-11.2-11.2c-2.1-4.8-4.3-10.6-4.3-16.5
		c0-6.4,1.1-12.2,3.7-17s6.4-9,10.6-11.2c4.8-3.2,9.6-4.3,15.9-4.3c5.8,0,11.2,1.1,15.4,3.7c4.3,2.7,8,6.4,10.1,11.2
		c2.1,4.8,3.7,10.1,3.7,16.5c0,1.1-0.5,2.1-1.1,3.2c-0.5,0.5-1.6,1.1-3.2,1.1h-48.9v-7.4h49.9l-4.8,3.7c0-4.8-0.5-8.5-2.1-12.2
		c-1.6-3.7-4.3-6.4-6.9-8.5c-3.2-2.1-6.9-3.2-11.2-3.2c-4.8,0-8,1.1-11.7,3.2c-3.2,2.1-5.8,4.8-8,9c-2.1,3.7-2.7,8-2.7,12.8
		s1.1,9,3.2,12.8c2.1,3.7,4.8,6.4,8.5,8.5c3.7,2.1,8,3.2,12.2,3.2c3.2,0,5.3-0.5,8.5-1.1c3.2-1.1,5.3-2.1,6.9-3.7
		c1.1-0.5,2.1-1.1,3.2-1.1c1.1,0,2.1,0.5,3.2,1.1c1.1,1.1,1.6,2.1,1.6,3.2s-0.5,2.1-1.1,3.2c-2.7,2.1-5.8,3.7-9.6,5.3
		C430.1,141.5,426.4,142.1,422.7,142.1z"/>
	<path class="st0" d="M542.8,142.1c-6.4,0-11.7-1.1-16.5-4.3c-4.8-3.2-9-6.4-11.2-11.2c-3.2-4.8-4.3-10.6-4.3-16.5
		c0-6.4,1.1-11.7,4.3-16.5c3.2-4.8,6.4-9,11.2-11.2c4.8-3.2,10.6-4.3,16.5-4.3c6.4,0,11.7,1.1,16.5,4.3s9,6.4,11.2,11.2
		c3.2,4.8,4.3,10.6,4.3,16.5c0,6.4-1.1,11.7-4.3,16.5s-6.4,9-11.2,11.2C554.4,141,548.6,142.1,542.8,142.1z M542.8,134.1
		c4.8,0,8.5-1.1,12.2-3.2c3.7-2.1,6.4-4.8,8.5-8.5c2.1-3.7,3.2-8,3.2-12.2c0-4.8-1.1-9-3.2-12.2c-2.1-3.7-4.8-6.4-8.5-9
		c-3.7-2.1-7.4-3.2-12.2-3.2c-4.8,0-8.5,1.1-12.2,3.2c-3.7,2.1-6.4,4.8-8.5,9c-2.1,3.7-3.2,8-3.2,12.2c0,4.8,1.1,9,3.2,12.2
		s4.8,6.4,8.5,8.5C534.3,133,538,134.1,542.8,134.1z"/>
	<path class="st0" d="M649,168.6c-1.1,0-2.1-0.5-3.2-1.1c-1.1-1.1-1.1-2.1-1.1-3.2v-34c-2.7,3.7-5.8,6.4-10.1,9
		c-4.3,2.7-9,3.2-13.8,3.2c-5.8,0-11.2-1.1-15.9-4.3c-4.8-3.2-8.5-6.9-11.2-11.7c-2.7-4.8-4.3-10.6-4.3-16.5s1.1-11.7,4.3-16.5
		c3.2-4.8,6.9-9,11.2-11.7c4.8-3.2,10.6-4.3,16.5-4.3c6.4,0,11.2,1.1,16.5,4.3c4.8,3.2,9,6.4,11.2,11.2c3.2,4.8,4.3,10.6,4.8,16.5
		v54.7c0,1.1-0.5,2.7-1.1,3.2C651.1,168.1,650.6,168.6,649,168.6z M621.4,134.1c4.8,0,8.5-1.1,12.2-3.2c3.7-2.1,6.4-4.8,8.5-9
		c2.1-3.7,3.2-8,3.2-12.2c0-4.8-1.1-9-3.2-12.2c-2.1-3.7-4.8-6.4-8.5-9s-7.4-3.2-12.2-3.2c-4.8,0-8.5,1.1-12.2,3.2
		c-3.7,2.1-6.4,4.8-8.5,9c-2.1,3.7-3.2,8-3.2,12.2c0,4.8,1.1,9,3.2,12.2c2.1,3.7,4.8,6.4,8.5,9C612.9,133,616.6,134.1,621.4,134.1z"
		/>
	<path class="st0" d="M703.2,142.1c-6.4,0-11.7-1.1-16.5-4.3c-4.8-3.2-9-6.4-11.2-11.2c-3.2-4.8-4.3-10.6-4.3-16.5
		c0-6.4,1.1-11.7,4.3-16.5c3.2-4.8,6.4-9,11.2-11.2c4.8-2.1,10.6-4.3,16.5-4.3c6.4,0,11.7,1.1,16.5,4.3c4.8,3.2,9,6.4,11.2,11.2
		c3.2,4.8,4.3,10.6,4.3,16.5c0,6.4-1.1,11.7-4.3,16.5c-3.2,4.8-6.4,9-11.2,11.2C714.9,141,709.6,142.1,703.2,142.1z M703.2,134.1
		c4.8,0,8.5-1.1,12.2-3.2c3.7-2.1,6.4-4.8,8.5-8.5c2.1-3.7,3.2-8,3.2-12.2c0-4.8-1.1-9-3.2-12.2c-2.1-3.7-4.8-6.4-8.5-9
		c-3.7-2.1-7.4-3.2-12.2-3.2c-4.8,0-8.5,1.1-12.2,3.2c-3.7,2.1-6.4,4.8-8.5,9c-2.1,3.7-3.2,8-3.2,12.2c0,4.8,1.1,9,3.2,12.2
		c2.1,3.7,4.8,6.4,8.5,8.5C694.7,133,699,134.1,703.2,134.1z"/>
	<path class="st0" d="M781.9,142.1c-6.4,0-11.7-1.1-16.5-4.3c-4.8-3.2-9-6.9-11.2-11.7c-3.2-4.8-4.3-10.6-4.3-16.5
		c0-5.8,1.1-11.7,4.3-16.5c2.7-4.8,6.4-9,11.2-11.7c4.8-3.2,10.1-4.3,15.9-4.3c5.3,0,9.6,1.1,13.8,3.2c4.3,2.1,7.4,5.3,10.1,9v-34
		c0-1.1,0.5-2.7,1.1-3.2c1.1-1.1,2.1-1.1,3.2-1.1s2.1,0.5,3.2,1.1c1.1,0.5,1.1,2.1,1.1,3.2v54.7c0,6.4-1.6,11.2-4.8,16.5
		c-3.2,4.8-6.4,9-11.2,11.2C793.5,141,788.2,142.1,781.9,142.1z M781.9,134.1c4.8,0,8.5-1.1,12.2-3.2c3.7-2.1,6.4-4.8,8.5-9
		c2.1-3.7,3.2-8,3.2-12.2c0-4.8-1.1-9-3.2-12.2c-2.1-3.7-4.8-6.4-8.5-9c-3.7-2.1-7.4-3.2-12.2-3.2c-4.8,0-8.5,1.1-12.2,3.2
		c-3.7,2.1-6.4,4.8-8.5,9c-2.1,3.7-3.2,8-3.2,12.2c0,4.8,1.1,9,3.2,12.2c2.1,3.7,4.8,6.4,8.5,9C773.9,133,777.6,134.1,781.9,134.1z"
		/>
	<path class="st0" d="M863.7,142.1c-6.4,0-11.7-1.1-16.5-4.3c-4.8-2.7-9-6.4-11.2-11.2s-4.3-10.6-4.3-16.5c0-6.4,1.1-12.2,3.7-17
		c2.7-4.8,6.4-9,10.6-11.2c4.8-3.2,9.6-4.3,15.9-4.3c5.8,0,11.2,1.1,15.4,3.7c4.3,2.7,8,6.4,10.1,11.2c2.1,4.8,3.7,10.1,3.7,16.5
		c0,1.1-0.5,2.1-1.1,3.2c-0.5,0.5-1.6,1.1-3.2,1.1h-49.4v-7.4h49.9l-4.8,3.7c0-4.8-0.5-8.5-2.1-12.2c-1.6-3.7-4.3-6.4-6.9-8.5
		c-3.2-2.1-6.9-3.2-11.2-3.2c-4.8,0-8,1.1-11.7,3.2c-3.2,2.1-5.8,4.8-8,9c-2.1,3.7-2.7,8-2.7,12.8s1.1,9,3.2,12.8
		c2.1,3.7,4.8,6.4,8.5,8.5c3.7,2.1,8,3.2,12.2,3.2c3.2,0,5.3-0.5,8.5-1.1c3.2-1.1,5.3-2.1,6.9-3.7c1.1-0.5,2.1-1.1,3.2-1.1
		c1.1,0,2.1,0.5,3.2,1.1c1.1,1.1,1.6,2.1,1.6,3.2s-0.5,2.1-1.1,3.2c-2.7,2.1-5.8,3.7-9.6,5.3C871.1,141.5,867.4,142.1,863.7,142.1z"
		/>
	<path class="st0" d="M490.7,85.8c-4.3,0-8,1.1-10.6,4.3c-2.7,3.2-4.8,6.4-4.8,10.6v36.7c0,2.1-2.1,4.3-4.3,4.3h-0.5
		c-2.1,0-4.3-2.1-4.3-4.3v-36.7c0-4.8,1.1-9,3.7-12.8c2.7-3.7,5.8-6.4,9.6-8.5h1.1c2.1-1.1,3.7-1.6,6.4-2.1c5.3-0.5,10.6,0,14.9,2.1
		c2.1,1.1,2.1,3.7,0,4.8l-2.1,1.1c-2.1,1.1-3.7,1.1-4.8,1.1C493.3,86.3,492.3,85.8,490.7,85.8z"/>
</g>
<path class="st1" d="M144.3,276.5L144.3,276.5c-74.4,0-135-60-135-132.8V140C9.3,66.6,69.9,7.1,143.7,7.1l0,0
	c73.9,0,134.4,59.5,134.4,132.8v3.7C278.7,216.5,218.1,276.5,144.3,276.5z"/>
<g>
	<path class="st2" d="M140,165.5c-2.7,4.8-1.1,11.2,3.7,13.8c1.6,0.5,3.2,1.6,4.8,1.6c3.2,0,6.9-1.6,8.5-4.8l54.7-91.4
		c1.6-2.1,2.1-4.3,2.1-6.9c0-7.4-5.8-13.3-13.3-13.3l0,0H94.3c-5.3,0-9,4.3-9,9c0,5.3,4.3,9,9,9h58.4c11.2,0,20.7,9,20.7,20.2
		c0,3.7-1.1,7.4-3.2,11.2L140,165.5z"/>
	<path class="st3" d="M202.2,212.7c2.7-4.8,1.6-11.2-3.2-13.8c-1.6-1.1-3.7-1.6-5.3-1.6l-58.4,0.5c-11.2,0-20.7-9-20.7-20.2
		c0-3.7,1.1-7.4,3.2-11.2l29.2-49.9c2.7-4.3,1.6-10.1-3.2-13.3c-4.3-2.7-10.1-1.6-13.3,3.2c0,0.5-0.5,0.5-0.5,0.5l-53.7,91.9
		c-3.7,6.4-1.6,14.3,4.3,18.1H81c2.1,1.1,4.3,1.6,6.9,1.6l105.7-0.5C196.9,218.1,200.6,215.9,202.2,212.7z"/>
</g>
<g>
	<path class="st4" d="M332.9,188.3v19.1h-4.8v-31.9h4.8v5.3h0.5c0.5-1.6,2.1-2.7,3.2-3.7c1.1-1.1,3.2-1.6,5.8-1.6
		c2.1,0,4.3,0.5,5.8,1.1s2.7,2.1,3.7,4.3c1.1,2.1,1.6,4.3,1.6,6.9V208h-4.8v-20.2c0-2.7-0.5-4.3-2.1-5.8c-1.6-1.6-3.2-2.1-5.3-2.1
		c-1.6,0-3.2,0.5-4.3,1.1s-2.1,1.6-2.7,3.2C333.9,185.6,332.9,186.7,332.9,188.3z"/>
	<path class="st4" d="M388.7,208.5c-2.7,0-5.3-0.5-7.4-2.1c-2.1-1.6-3.7-3.2-5.3-5.8c-1.6-2.7-1.6-5.3-1.6-8.5
		c0-3.2,0.5-6.4,1.6-8.5s2.7-4.3,5.3-5.8c2.7-1.6,4.8-2.1,7.4-2.1s5.3,0.5,7.4,2.1c2.1,1.6,3.7,3.2,5.3,5.8s1.6,5.3,1.6,8.5
		c0,3.2-0.5,6.4-1.6,8.5s-2.7,4.3-5.3,5.8C393.5,208,391.3,208.5,388.7,208.5z M388.7,203.7c2.1,0,4.3-0.5,5.3-1.6
		c1.1-1.1,2.7-2.7,3.2-4.3c0.5-1.6,1.1-3.7,1.1-5.8s-0.5-4.3-1.1-5.8c-0.5-1.6-1.6-3.2-3.2-4.3c-1.6-1.1-3.2-1.6-5.3-1.6
		c-2.1,0-4.3,0.5-5.3,1.6s-2.7,2.7-3.2,4.3c-0.5,1.6-1.1,3.7-1.1,5.8s0.5,4.3,1.1,5.8c0.5,1.6,1.6,3.2,3.2,4.3
		C384.9,203.2,386.5,203.7,388.7,203.7z"/>
	<path class="st4" d="M427.5,208c-1.1,0-2.1-0.5-2.7-1.1c-0.5-0.5-1.1-1.6-1.1-2.7c0-1.1,0.5-2.1,1.1-2.7c0.5-0.5,1.6-1.1,2.7-1.1
		c1.1,0,2.1,0.5,2.7,1.1c0.5,0.5,1.1,1.6,1.1,2.7c0,0.5,0,1.1-0.5,2.1c-0.5,1.1-1.1,1.1-1.6,1.1C428.5,207.4,428,208,427.5,208z"/>
	<path class="st4" d="M453.5,208v-31.9h4.8v4.8h0.5c0.5-1.6,1.6-3.2,3.2-3.7s3.2-1.6,5.3-1.6c2.1,0,3.7,0.5,5.3,1.6
		c1.6,1.1,2.7,2.1,3.2,3.7h0.5c1.1-1.6,2.1-3.2,3.7-3.7s3.7-1.6,5.8-1.6c2.7,0,5.3,1.1,6.9,2.7c1.6,1.6,2.7,4.8,2.7,8.5V208h-4.8
		v-21.3c0-2.1-0.5-4.3-2.1-4.8c-1.6-0.5-2.7-1.6-4.8-1.6c-2.1,0-3.7,0.5-5.3,2.1c-1.6,1.6-1.6,3.2-1.6,5.3v20.7h-4.8v-21.8
		c0-1.6-0.5-3.2-1.6-4.3c-1.1-1.1-2.7-1.6-4.8-1.6c-1.1,0-2.7,0.5-3.7,1.1c-1.1,0.5-2.1,1.6-2.7,2.7c-0.5,1.1-1.1,2.7-1.1,4.3V209
		h-4.8V208z"/>
	<path class="st4" d="M530.5,208.5c-2.7,0-5.3-0.5-7.4-2.1c-2.1-1.6-3.7-3.2-5.3-5.8s-1.6-5.3-1.6-8.5c0-3.2,0.5-6.4,1.6-8.5
		s2.7-4.3,5.3-5.8c2.7-1.6,4.8-2.1,7.4-2.1s5.3,0.5,7.4,2.1s3.7,3.2,5.3,5.8s1.6,5.3,1.6,8.5c0,3.2-0.5,6.4-1.6,8.5
		s-2.7,4.3-5.3,5.8C535.3,208,533.2,208.5,530.5,208.5z M530.5,203.7c2.1,0,4.3-0.5,5.3-1.6c1.1-1.1,2.7-2.7,3.2-4.3
		c0.5-1.6,1.1-3.7,1.1-5.8s-0.5-4.3-1.1-5.8c-0.5-1.6-1.6-3.2-3.2-4.3c-1.6-1.1-3.2-1.6-5.3-1.6s-4.3,0.5-5.3,1.6s-2.7,2.7-3.2,4.3
		c-0.5,1.6-1.1,3.7-1.1,5.8s0.5,4.3,1.1,5.8c0.5,1.6,1.6,3.2,3.2,4.3C526.8,203.2,528.4,203.7,530.5,203.7z"/>
	<path class="st4" d="M565.6,208v-31.9h4.8v4.8h0.5c0.5-1.6,1.6-2.7,3.2-3.7c1.6-1.1,3.2-1.6,5.3-1.6c0.5,0,1.1,0,1.6,0
		c0.5,0,1.1,0,1.1,0v4.8c0,0-0.5,0-1.1,0c-0.5,0-1.1,0-1.6,0c-1.6,0-3.2,0.5-4.3,1.1s-2.1,1.6-2.7,2.7c-0.5,1.1-1.1,2.7-1.1,3.7V208
		C571.4,208,565.6,208,565.6,208z"/>
	<path class="st4" d="M613.4,208.5c-3.2,0-5.8-0.5-8-2.1c-2.1-1.6-3.7-3.2-5.3-5.8s-1.6-5.3-1.6-8.5c0-3.2,0.5-6.4,1.6-8.5
		s2.7-4.3,4.8-5.8c2.1-1.6,4.8-2.1,7.4-2.1c1.6,0,3.2,0.5,4.8,1.1c1.6,0.5,3.2,1.6,4.3,2.7c1.1,1.1,2.1,2.7,3.2,4.8
		c1.1,2.1,1.1,4.8,1.1,7.4v2.1h-24.4v-4.3h19.7c0-1.6-0.5-3.2-1.1-4.8c-0.5-1.6-1.6-2.7-3.2-3.2c-1.6-0.5-2.7-1.1-4.8-1.1
		c-2.1,0-3.7,0.5-5.3,1.6c-1.6,1.1-2.7,2.1-3.2,3.7c-0.5,1.6-1.1,3.2-1.1,4.8v2.7c0,2.7,0.5,4.3,1.1,6.4c0.5,2.1,2.1,3.2,3.7,3.7
		c1.6,0.5,3.2,1.1,5.3,1.1c1.1,0,2.7,0,3.7-0.5c1.1-0.5,2.1-1.1,2.7-1.6c0.5-0.5,1.6-1.6,1.6-2.7l4.8,1.1c-0.5,1.6-1.6,3.2-2.7,4.3
		c-1.1,1.1-2.7,2.1-4.3,2.7C616.6,208,615.5,208.5,613.4,208.5z"/>
	<path class="st4" d="M650.6,208c-1.1,0-2.1-0.5-2.7-1.1s-1.1-1.6-1.1-2.7c0-1.1,0.5-2.1,1.1-2.7c0.5-0.5,1.6-1.1,2.7-1.1
		c1.1,0,2.1,0.5,2.7,1.1c0.5,0.5,1.1,1.6,1.1,2.7c0,0.5,0,1.1-0.5,2.1c-0.5,1.1-0.5,1.1-1.6,1.6C651.1,208.5,651.7,208,650.6,208z"
		/>
	<path class="st4" d="M689.9,208.5c-3.2,0-5.3-0.5-8-2.1c-2.7-1.6-3.7-3.2-4.8-5.8c-1.1-2.7-1.6-5.3-1.6-8.5c0-3.2,0.5-5.8,1.6-8.5
		c1.1-2.7,2.7-4.3,4.8-5.8c2.1-1.6,4.8-2.1,7.4-2.1c2.1,0,4.3,0.5,5.8,1.1s3.2,2.1,4.3,3.7c1.1,1.6,2.1,3.2,2.1,5.3h-4.8
		c-0.5-1.6-1.1-2.7-2.7-3.7s-3.2-1.6-5.3-1.6c-2.1,0-3.7,0.5-4.8,1.6c-1.1,1.1-2.7,2.1-3.2,4.3c-0.5,2.1-1.1,3.7-1.1,6.4
		s0.5,4.8,1.1,6.4c0.5,1.6,2.1,3.2,3.2,4.3c1.1,1.1,3.2,1.6,5.3,1.6c1.1,0,2.7,0,3.7-0.5c1.1-0.5,2.1-1.1,2.7-2.1
		c0.5-1.1,1.1-1.6,1.6-3.2h4.8c-0.5,2.1-1.1,3.7-2.1,5.3c-1.1,1.6-2.7,2.7-4.3,3.7C694.2,209,692.1,208.5,689.9,208.5z"/>
	<path class="st4" d="M735.6,208.5c-2.7,0-5.3-0.5-7.4-2.1c-2.1-1.6-3.7-3.2-5.3-5.8s-1.6-5.3-1.6-8.5c0-3.2,0.5-6.4,1.6-8.5
		s2.7-4.3,5.3-5.8s4.8-2.1,7.4-2.1c2.7,0,5.3,0.5,7.4,2.1s3.7,3.2,5.3,5.8s1.6,5.3,1.6,8.5c0,3.2-0.5,6.4-1.6,8.5s-2.7,4.3-5.3,5.8
		C740.4,208,738.8,208.5,735.6,208.5z M735.6,203.7c2.1,0,4.3-0.5,5.3-1.6c1.1-1.1,2.7-2.7,3.2-4.3c0.5-1.6,1.1-3.7,1.1-5.8
		s-0.5-4.3-1.1-5.8c-0.5-1.6-1.6-3.2-3.2-4.3s-3.2-1.6-5.3-1.6c-2.1,0-4.3,0.5-5.3,1.6c-1.1,1.1-2.7,2.7-3.2,4.3s-1.1,3.7-1.1,5.8
		s0.5,4.3,1.1,5.8c0.5,1.6,1.6,3.2,3.2,4.3C731.9,203.2,733.5,203.7,735.6,203.7z"/>
	<path class="st4" d="M782.9,208.5c-2.7,0-4.8-0.5-6.9-2.1c-2.1-1.6-3.7-3.2-4.8-5.8c-1.1-2.7-1.6-5.3-1.6-9c0-3.2,0.5-6.4,1.6-8.5
		c1.1-2.1,2.7-4.3,4.8-5.8c2.1-1.6,4.3-2.1,6.9-2.1c2.1,0,3.7,0.5,4.8,1.1c1.1,0.5,2.1,1.6,2.7,2.1s1.1,1.6,1.6,2.1h0.5v-15.9h4.8
		v42.5h-4.8v-4.8h-0.5c-0.5,0.5-1.1,1.1-1.6,2.1c-0.5,1.1-1.6,1.6-2.7,2.1C786.6,206.9,785,208.5,782.9,208.5z M784,203.7
		c2.1,0,3.7-0.5,4.8-1.6c1.1-1.1,2.1-2.7,3.2-4.3c1.1-1.6,1.1-3.7,1.1-6.4c0-2.1-0.5-4.3-1.1-6.4c-0.5-2.1-1.6-3.2-3.2-4.3
		c-1.6-1.1-3.2-1.6-4.8-1.6c-2.1,0-3.7,0.5-5.3,1.6c-1.6,1.1-2.7,2.7-3.2,4.3s-1.1,3.7-1.1,5.8c0,2.1,0.5,4.3,1.1,6.4
		c0.5,2.1,1.6,3.2,3.2,4.3C780.3,202.6,781.9,203.7,784,203.7z"/>
	<path class="st4" d="M833.9,208.5c-3.2,0-5.8-0.5-8-2.1c-2.1-1.6-3.7-3.2-5.3-5.8s-1.6-5.3-1.6-8.5c0-3.2,0.5-6.4,1.6-8.5
		c1.1-2.1,2.7-4.3,4.8-5.8c2.1-1.6,4.8-2.1,7.4-2.1c1.6,0,3.2,0.5,4.8,1.1c1.6,0.5,3.2,1.6,4.3,2.7c1.1,1.1,2.1,2.7,3.2,4.8
		c1.1,2.1,1.1,4.8,1.1,7.4v2.1h-24.4v-4.3h19.7c0-1.6-0.5-3.2-1.1-4.8c-0.5-1.6-1.6-2.7-3.2-3.2c-1.6-0.5-2.7-1.1-4.8-1.1
		c-2.1,0-3.7,0.5-5.3,1.6c-1.6,1.1-2.7,2.1-3.2,3.7c-0.5,1.6-1.1,3.2-1.1,4.8v2.7c0,2.7,0.5,4.3,1.1,6.4c0.5,2.1,2.1,3.2,3.7,3.7
		s3.2,1.1,5.3,1.1c1.1,0,2.7,0,3.7-0.5c1.1-0.5,2.1-1.1,2.7-1.6c0.5-0.5,1.6-1.6,1.6-2.7l4.8,1.1c-0.5,1.6-1.6,3.2-2.7,4.3
		c-1.1,1.1-2.7,2.1-4.3,2.7C837.1,208,836,208.5,833.9,208.5z"/>
</g>
</svg>
