<?xml version="1.0" encoding="utf-8"?>
<!-- Generator: Adobe Illustrator 22.1.0, SVG Export Plug-In . SVG Version: 6.00 Build 0)  -->
<svg version="1.1" id="Слой_1" xmlns="http://www.w3.org/2000/svg" xmlns:xlink="http://www.w3.org/1999/xlink" x="0px" y="0px"
	 viewBox="0 0 1000 1000" style="enable-background:new 0 0 1000 1000;" xml:space="preserve">
<style type="text/css">
	.st0{fill:#1AAFD0;}
	.st1{fill:#FFFFFF;}
	.st2{opacity:0.7;fill:#FFFFFF;enable-background:new    ;}
</style>
<path class="st0" d="M499.1,983.3L499.1,983.3C232.8,983.3,15,768.7,15,506.2v-13.7C15,229.6,232.8,15,499.1,15l0,0
	c266.4,0,484.1,214.6,484.1,477.2v13.7C983.3,768.7,765.2,983.3,499.1,983.3z"/>
<g>
	<path class="st1" d="M485.2,584.7c-10,17.5-3.6,40.7,13.5,50.4c4.8,2.6,11,4.8,17.5,4.8c12.3,0,24.5-6.1,30.7-17.5L742.9,295
		c4.8-7.4,7.4-15.8,7.4-24.5c0-27.2-21-48.1-48.1-48.1l0,0H320.5c-18.4,0-33.3,14.8-33.3,33.3c0,18.4,14.8,33.3,33.3,33.3h209.3
		c40.7,0,73.7,31.9,75.3,72.6c0,13.5-3.6,27.2-11,39.4L485.2,584.7z"/>
	<path class="st2" d="M708.3,754.6c10-17.5,4.8-39.4-12.3-49.4c-6.1-3.6-13.5-4.8-19.7-4.8l-210.6,1.3c-40.7,0-73.7-31.9-75.3-72.6
		c0-13.5,3.6-27.2,11-39.4l106-179.6c10-15.8,4.8-37.1-11-46.8c-15.8-10-37.1-4.8-46.8,11c0,1.3-1.3,1.3-1.3,2.6L254.8,704.2
		c-13.5,22.3-6.1,51.7,15.8,65.2l1.3,0.6c7.8,4.2,16.2,5.9,24.9,5.9l380.4-2.6C689.6,773,701.9,765.6,708.3,754.6z"/>
</g>
</svg>
